<svg width="545" height="102" viewBox="0 0 545 102" fill="none" xmlns="http://www.w3.org/2000/svg">
<mask id="path-1-outside-1_17_5" maskUnits="userSpaceOnUse" x="0.859985" y="0" width="544" height="102" fill="black">
<rect fill="white" x="0.859985" width="544" height="102"/>
<path d="M3.95721 97V3.90909H65.5936V20.1364H23.639V42.3182H61.5027V58.5455H23.639V97H3.95721ZM74.7836 97V27.1818H93.5563V39.3636H94.2836C95.5563 35.0303 97.6927 31.7576 100.693 29.5455C103.693 27.303 107.147 26.1818 111.056 26.1818C112.026 26.1818 113.071 26.2424 114.193 26.3636C115.314 26.4848 116.299 26.6515 117.147 26.8636V44.0455C116.238 43.7727 114.981 43.5303 113.374 43.3182C111.768 43.1061 110.299 43 108.965 43C106.117 43 103.571 43.6212 101.329 44.8636C99.1169 46.0758 97.3593 47.7727 96.0563 49.9545C94.7836 52.1364 94.1472 54.6515 94.1472 57.5V97H74.7836ZM152.894 98.3636C145.833 98.3636 139.727 96.8636 134.576 93.8636C129.455 90.8333 125.5 86.6212 122.712 81.2273C119.924 75.803 118.53 69.5152 118.53 62.3636C118.53 55.1515 119.924 48.8485 122.712 43.4545C125.5 38.0303 129.455 33.8182 134.576 30.8182C139.727 27.7879 145.833 26.2727 152.894 26.2727C159.955 26.2727 166.046 27.7879 171.167 30.8182C176.318 33.8182 180.288 38.0303 183.076 43.4545C185.864 48.8485 187.258 55.1515 187.258 62.3636C187.258 69.5152 185.864 75.803 183.076 81.2273C180.288 86.6212 176.318 90.8333 171.167 93.8636C166.046 96.8636 159.955 98.3636 152.894 98.3636ZM152.985 83.3636C156.197 83.3636 158.879 82.4545 161.03 80.6364C163.182 78.7879 164.803 76.2727 165.894 73.0909C167.015 69.9091 167.576 66.2879 167.576 62.2273C167.576 58.1667 167.015 54.5455 165.894 51.3636C164.803 48.1818 163.182 45.6667 161.03 43.8182C158.879 41.9697 156.197 41.0455 152.985 41.0455C149.743 41.0455 147.015 41.9697 144.803 43.8182C142.621 45.6667 140.97 48.1818 139.849 51.3636C138.758 54.5455 138.212 58.1667 138.212 62.2273C138.212 66.2879 138.758 69.9091 139.849 73.0909C140.97 76.2727 142.621 78.7879 144.803 80.6364C147.015 82.4545 149.743 83.3636 152.985 83.3636ZM216.652 56.6364V97H197.289V27.1818H215.743V39.5H216.561C218.107 35.4394 220.698 32.2273 224.334 29.8636C227.97 27.4697 232.379 26.2727 237.561 26.2727C242.41 26.2727 246.637 27.3333 250.243 29.4545C253.849 31.5758 256.652 34.6061 258.652 38.5455C260.652 42.4545 261.652 47.1212 261.652 52.5455V97H242.289V56C242.319 51.7273 241.228 48.3939 239.016 46C236.804 43.5758 233.758 42.3636 229.879 42.3636C227.273 42.3636 224.97 42.9242 222.97 44.0455C221.001 45.1667 219.455 46.803 218.334 48.9545C217.243 51.0758 216.683 53.6364 216.652 56.6364ZM311.49 27.1818V41.7273H269.444V27.1818H311.49ZM278.99 10.4545H298.354V75.5455C298.354 77.3333 298.626 78.7273 299.172 79.7273C299.717 80.697 300.475 81.3788 301.444 81.7727C302.444 82.1667 303.596 82.3636 304.899 82.3636C305.808 82.3636 306.717 82.2879 307.626 82.1364C308.535 81.9545 309.232 81.8182 309.717 81.7273L312.763 96.1364C311.793 96.4394 310.429 96.7879 308.672 97.1818C306.914 97.6061 304.778 97.8636 302.263 97.9545C297.596 98.1364 293.505 97.5152 289.99 96.0909C286.505 94.6667 283.793 92.4545 281.854 89.4545C279.914 86.4545 278.96 82.6667 278.99 78.0909V10.4545ZM323.407 97V3.90909H386.134V20.1364H343.089V42.3182H382.907V58.5455H343.089V80.7727H386.316V97H323.407ZM418.222 56.6364V97H398.859V27.1818H417.313V39.5H418.131C419.677 35.4394 422.268 32.2273 425.904 29.8636C429.54 27.4697 433.949 26.2727 439.131 26.2727C443.98 26.2727 448.207 27.3333 451.813 29.4545C455.419 31.5758 458.222 34.6061 460.222 38.5455C462.222 42.4545 463.222 47.1212 463.222 52.5455V97H443.859V56C443.889 51.7273 442.798 48.3939 440.586 46C438.374 43.5758 435.328 42.3636 431.45 42.3636C428.843 42.3636 426.54 42.9242 424.54 44.0455C422.571 45.1667 421.025 46.803 419.904 48.9545C418.813 51.0758 418.253 53.6364 418.222 56.6364ZM501.651 98.1364C496.348 98.1364 491.545 96.7727 487.242 94.0455C482.969 91.2879 479.575 87.2424 477.06 81.9091C474.575 76.5455 473.333 69.9697 473.333 62.1818C473.333 54.1818 474.621 47.5303 477.196 42.2273C479.772 36.8939 483.196 32.9091 487.469 30.2727C491.772 27.6061 496.484 26.2727 501.605 26.2727C505.514 26.2727 508.772 26.9394 511.378 28.2727C514.014 29.5758 516.136 31.2121 517.742 33.1818C519.378 35.1212 520.621 37.0303 521.469 38.9091H522.06V3.90909H541.378V97H522.287V85.8182H521.469C520.56 87.7576 519.272 89.6818 517.605 91.5909C515.969 93.4697 513.833 95.0303 511.196 96.2727C508.59 97.5152 505.408 98.1364 501.651 98.1364ZM507.787 82.7273C510.908 82.7273 513.545 81.8788 515.696 80.1818C517.878 78.4545 519.545 76.0455 520.696 72.9545C521.878 69.8636 522.469 66.2424 522.469 62.0909C522.469 57.9394 521.893 54.3333 520.742 51.2727C519.59 48.2121 517.924 45.8485 515.742 44.1818C513.56 42.5151 510.908 41.6818 507.787 41.6818C504.605 41.6818 501.924 42.5455 499.742 44.2727C497.56 46 495.908 48.3939 494.787 51.4545C493.666 54.5151 493.105 58.0606 493.105 62.0909C493.105 66.1515 493.666 69.7424 494.787 72.8636C495.939 75.9545 497.59 78.3788 499.742 80.1364C501.924 81.8636 504.605 82.7273 507.787 82.7273Z"/>
</mask>
<path d="M3.95721 97V3.90909H65.5936V20.1364H23.639V42.3182H61.5027V58.5455H23.639V97H3.95721ZM74.7836 97V27.1818H93.5563V39.3636H94.2836C95.5563 35.0303 97.6927 31.7576 100.693 29.5455C103.693 27.303 107.147 26.1818 111.056 26.1818C112.026 26.1818 113.071 26.2424 114.193 26.3636C115.314 26.4848 116.299 26.6515 117.147 26.8636V44.0455C116.238 43.7727 114.981 43.5303 113.374 43.3182C111.768 43.1061 110.299 43 108.965 43C106.117 43 103.571 43.6212 101.329 44.8636C99.1169 46.0758 97.3593 47.7727 96.0563 49.9545C94.7836 52.1364 94.1472 54.6515 94.1472 57.5V97H74.7836ZM152.894 98.3636C145.833 98.3636 139.727 96.8636 134.576 93.8636C129.455 90.8333 125.5 86.6212 122.712 81.2273C119.924 75.803 118.53 69.5152 118.53 62.3636C118.53 55.1515 119.924 48.8485 122.712 43.4545C125.5 38.0303 129.455 33.8182 134.576 30.8182C139.727 27.7879 145.833 26.2727 152.894 26.2727C159.955 26.2727 166.046 27.7879 171.167 30.8182C176.318 33.8182 180.288 38.0303 183.076 43.4545C185.864 48.8485 187.258 55.1515 187.258 62.3636C187.258 69.5152 185.864 75.803 183.076 81.2273C180.288 86.6212 176.318 90.8333 171.167 93.8636C166.046 96.8636 159.955 98.3636 152.894 98.3636ZM152.985 83.3636C156.197 83.3636 158.879 82.4545 161.03 80.6364C163.182 78.7879 164.803 76.2727 165.894 73.0909C167.015 69.9091 167.576 66.2879 167.576 62.2273C167.576 58.1667 167.015 54.5455 165.894 51.3636C164.803 48.1818 163.182 45.6667 161.03 43.8182C158.879 41.9697 156.197 41.0455 152.985 41.0455C149.743 41.0455 147.015 41.9697 144.803 43.8182C142.621 45.6667 140.97 48.1818 139.849 51.3636C138.758 54.5455 138.212 58.1667 138.212 62.2273C138.212 66.2879 138.758 69.9091 139.849 73.0909C140.97 76.2727 142.621 78.7879 144.803 80.6364C147.015 82.4545 149.743 83.3636 152.985 83.3636ZM216.652 56.6364V97H197.289V27.1818H215.743V39.5H216.561C218.107 35.4394 220.698 32.2273 224.334 29.8636C227.97 27.4697 232.379 26.2727 237.561 26.2727C242.41 26.2727 246.637 27.3333 250.243 29.4545C253.849 31.5758 256.652 34.6061 258.652 38.5455C260.652 42.4545 261.652 47.1212 261.652 52.5455V97H242.289V56C242.319 51.7273 241.228 48.3939 239.016 46C236.804 43.5758 233.758 42.3636 229.879 42.3636C227.273 42.3636 224.97 42.9242 222.97 44.0455C221.001 45.1667 219.455 46.803 218.334 48.9545C217.243 51.0758 216.683 53.6364 216.652 56.6364ZM311.49 27.1818V41.7273H269.444V27.1818H311.49ZM278.99 10.4545H298.354V75.5455C298.354 77.3333 298.626 78.7273 299.172 79.7273C299.717 80.697 300.475 81.3788 301.444 81.7727C302.444 82.1667 303.596 82.3636 304.899 82.3636C305.808 82.3636 306.717 82.2879 307.626 82.1364C308.535 81.9545 309.232 81.8182 309.717 81.7273L312.763 96.1364C311.793 96.4394 310.429 96.7879 308.672 97.1818C306.914 97.6061 304.778 97.8636 302.263 97.9545C297.596 98.1364 293.505 97.5152 289.99 96.0909C286.505 94.6667 283.793 92.4545 281.854 89.4545C279.914 86.4545 278.96 82.6667 278.99 78.0909V10.4545ZM323.407 97V3.90909H386.134V20.1364H343.089V42.3182H382.907V58.5455H343.089V80.7727H386.316V97H323.407ZM418.222 56.6364V97H398.859V27.1818H417.313V39.5H418.131C419.677 35.4394 422.268 32.2273 425.904 29.8636C429.54 27.4697 433.949 26.2727 439.131 26.2727C443.98 26.2727 448.207 27.3333 451.813 29.4545C455.419 31.5758 458.222 34.6061 460.222 38.5455C462.222 42.4545 463.222 47.1212 463.222 52.5455V97H443.859V56C443.889 51.7273 442.798 48.3939 440.586 46C438.374 43.5758 435.328 42.3636 431.45 42.3636C428.843 42.3636 426.54 42.9242 424.54 44.0455C422.571 45.1667 421.025 46.803 419.904 48.9545C418.813 51.0758 418.253 53.6364 418.222 56.6364ZM501.651 98.1364C496.348 98.1364 491.545 96.7727 487.242 94.0455C482.969 91.2879 479.575 87.2424 477.06 81.9091C474.575 76.5455 473.333 69.9697 473.333 62.1818C473.333 54.1818 474.621 47.5303 477.196 42.2273C479.772 36.8939 483.196 32.9091 487.469 30.2727C491.772 27.6061 496.484 26.2727 501.605 26.2727C505.514 26.2727 508.772 26.9394 511.378 28.2727C514.014 29.5758 516.136 31.2121 517.742 33.1818C519.378 35.1212 520.621 37.0303 521.469 38.9091H522.06V3.90909H541.378V97H522.287V85.8182H521.469C520.56 87.7576 519.272 89.6818 517.605 91.5909C515.969 93.4697 513.833 95.0303 511.196 96.2727C508.59 97.5152 505.408 98.1364 501.651 98.1364ZM507.787 82.7273C510.908 82.7273 513.545 81.8788 515.696 80.1818C517.878 78.4545 519.545 76.0455 520.696 72.9545C521.878 69.8636 522.469 66.2424 522.469 62.0909C522.469 57.9394 521.893 54.3333 520.742 51.2727C519.59 48.2121 517.924 45.8485 515.742 44.1818C513.56 42.5151 510.908 41.6818 507.787 41.6818C504.605 41.6818 501.924 42.5455 499.742 44.2727C497.56 46 495.908 48.3939 494.787 51.4545C493.666 54.5151 493.105 58.0606 493.105 62.0909C493.105 66.1515 493.666 69.7424 494.787 72.8636C495.939 75.9545 497.59 78.3788 499.742 80.1364C501.924 81.8636 504.605 82.7273 507.787 82.7273Z" fill="url(#paint0_linear_17_5)"/>
<path d="M3.95721 97H0.957211V100H3.95721V97ZM3.95721 3.90909V0.909088H0.957211V3.90909H3.95721ZM65.5936 3.90909H68.5936V0.909088H65.5936V3.90909ZM65.5936 20.1364V23.1364H68.5936V20.1364H65.5936ZM23.639 20.1364V17.1364H20.639V20.1364H23.639ZM23.639 42.3182H20.639V45.3182H23.639V42.3182ZM61.5027 42.3182H64.5027V39.3182H61.5027V42.3182ZM61.5027 58.5455V61.5455H64.5027V58.5455H61.5027ZM23.639 58.5455V55.5455H20.639V58.5455H23.639ZM23.639 97V100H26.639V97H23.639ZM3.95721 97H6.95721V3.90909H3.95721H0.957211V97H3.95721ZM3.95721 3.90909V6.90909H65.5936V3.90909V0.909088H3.95721V3.90909ZM65.5936 3.90909H62.5936V20.1364H65.5936H68.5936V3.90909H65.5936ZM65.5936 20.1364V17.1364H23.639V20.1364V23.1364H65.5936V20.1364ZM23.639 20.1364H20.639V42.3182H23.639H26.639V20.1364H23.639ZM23.639 42.3182V45.3182H61.5027V42.3182V39.3182H23.639V42.3182ZM61.5027 42.3182H58.5027V58.5455H61.5027H64.5027V42.3182H61.5027ZM61.5027 58.5455V55.5455H23.639V58.5455V61.5455H61.5027V58.5455ZM23.639 58.5455H20.639V97H23.639H26.639V58.5455H23.639ZM23.639 97V94H3.95721V97V100H23.639V97ZM74.7836 97H71.7836V100H74.7836V97ZM74.7836 27.1818V24.1818H71.7836V27.1818H74.7836ZM93.5563 27.1818H96.5563V24.1818H93.5563V27.1818ZM93.5563 39.3636H90.5563V42.3636H93.5563V39.3636ZM94.2836 39.3636V42.3636H96.5292L97.162 40.209L94.2836 39.3636ZM100.693 29.5455L102.473 31.96L102.481 31.9542L102.489 31.9484L100.693 29.5455ZM114.193 26.3636L114.515 23.381L114.515 23.381L114.193 26.3636ZM117.147 26.8636H120.147V24.5213L117.875 23.9532L117.147 26.8636ZM117.147 44.0455L116.285 46.9189L120.147 48.0775V44.0455H117.147ZM101.329 44.8636L102.771 47.4946L102.783 47.4878L101.329 44.8636ZM96.0563 49.9545L93.4807 48.4163L93.4728 48.4296L93.465 48.4429L96.0563 49.9545ZM94.1472 97V100H97.1472V97H94.1472ZM74.7836 97H77.7836V27.1818H74.7836H71.7836V97H74.7836ZM74.7836 27.1818V30.1818H93.5563V27.1818V24.1818H74.7836V27.1818ZM93.5563 27.1818H90.5563V39.3636H93.5563H96.5563V27.1818H93.5563ZM93.5563 39.3636V42.3636H94.2836V39.3636V36.3636H93.5563V39.3636ZM94.2836 39.3636L97.162 40.209C98.2901 36.368 100.105 33.7062 102.473 31.96L100.693 29.5455L98.9122 27.1309C95.2804 29.8089 92.8225 33.6926 91.4052 38.5182L94.2836 39.3636ZM100.693 29.5455L102.489 31.9484C104.946 30.1113 107.764 29.1818 111.056 29.1818V26.1818V23.1818C106.53 23.1818 102.439 24.4947 98.8966 27.1425L100.693 29.5455ZM111.056 26.1818V29.1818C111.903 29.1818 112.839 29.2348 113.87 29.3463L114.193 26.3636L114.515 23.381C113.304 23.25 112.149 23.1818 111.056 23.1818V26.1818ZM114.193 26.3636L113.87 29.3463C114.892 29.4567 115.736 29.6032 116.42 29.7741L117.147 26.8636L117.875 23.9532C116.861 23.6999 115.736 23.513 114.515 23.381L114.193 26.3636ZM117.147 26.8636H114.147V44.0455H117.147H120.147V26.8636H117.147ZM117.147 44.0455L118.009 41.172C116.877 40.8322 115.438 40.5647 113.767 40.344L113.374 43.3182L112.982 46.2924C114.523 46.4959 115.6 46.7132 116.285 46.9189L117.147 44.0455ZM113.374 43.3182L113.767 40.344C112.058 40.1182 110.454 40 108.965 40V43V46C110.143 46 111.479 46.0939 112.982 46.2924L113.374 43.3182ZM108.965 43V40C105.666 40 102.61 40.724 99.8751 42.2395L101.329 44.8636L102.783 47.4878C104.533 46.5184 106.568 46 108.965 46V43ZM101.329 44.8636L99.8874 42.2327C97.2031 43.7036 95.0555 45.7794 93.4807 48.4163L96.0563 49.9545L98.6319 51.4928C99.6632 49.7661 101.031 48.4479 102.771 47.4946L101.329 44.8636ZM96.0563 49.9545L93.465 48.4429C91.8917 51.1399 91.1472 54.1896 91.1472 57.5H94.1472H97.1472C97.1472 55.1134 97.6754 53.1328 98.6476 51.4662L96.0563 49.9545ZM94.1472 57.5H91.1472V97H94.1472H97.1472V57.5H94.1472ZM94.1472 97V94H74.7836V97V100H94.1472V97ZM134.576 93.8636L133.048 96.4455L133.057 96.4508L133.066 96.4561L134.576 93.8636ZM122.712 81.2273L120.044 82.5986L120.047 82.6047L122.712 81.2273ZM122.712 43.4545L125.377 44.832L125.38 44.8259L122.712 43.4545ZM134.576 30.8182L136.092 33.4067L136.097 33.404L134.576 30.8182ZM171.167 30.8182L169.639 33.4L169.648 33.4054L169.657 33.4106L171.167 30.8182ZM183.076 43.4545L180.408 44.8259L180.411 44.832L183.076 43.4545ZM183.076 81.2273L185.741 82.6047L185.744 82.5986L183.076 81.2273ZM171.167 93.8636L172.683 96.4522L172.688 96.4494L171.167 93.8636ZM161.03 80.6364L162.967 82.9277L162.976 82.9198L162.985 82.9119L161.03 80.6364ZM165.894 73.0909L163.065 72.0939L163.06 72.1059L163.056 72.1179L165.894 73.0909ZM165.894 51.3636L163.056 52.3366L163.06 52.3487L163.065 52.3607L165.894 51.3636ZM144.803 43.8182L142.879 41.5161L142.872 41.5226L142.864 41.5292L144.803 43.8182ZM139.849 51.3636L137.019 50.3666L137.015 50.3786L137.011 50.3907L139.849 51.3636ZM139.849 73.0909L137.011 74.0639L137.015 74.0759L137.019 74.088L139.849 73.0909ZM144.803 80.6364L142.864 82.9253L142.881 82.9398L142.898 82.954L144.803 80.6364ZM152.894 98.3636V95.3636C146.265 95.3636 140.701 93.9588 136.086 91.2712L134.576 93.8636L133.066 96.4561C138.754 99.7685 145.401 101.364 152.894 101.364V98.3636ZM134.576 93.8636L136.104 91.2818C131.477 88.5443 127.912 84.7543 125.377 79.8498L122.712 81.2273L120.047 82.6047C123.088 88.4882 127.432 93.1223 133.048 96.4455L134.576 93.8636ZM122.712 81.2273L125.38 79.8559C122.845 74.9235 121.53 69.1204 121.53 62.3636H118.53H115.53C115.53 69.9099 117.003 76.6826 120.044 82.5986L122.712 81.2273ZM118.53 62.3636H121.53C121.53 55.5412 122.847 49.7271 125.377 44.832L122.712 43.4545L120.047 42.0771C117.001 47.9699 115.53 54.7618 115.53 62.3636H118.53ZM122.712 43.4545L125.38 44.8259C127.915 39.8938 131.477 36.1104 136.092 33.4067L134.576 30.8182L133.059 28.2296C127.432 31.526 123.085 36.1668 120.044 42.0832L122.712 43.4545ZM134.576 30.8182L136.097 33.404C140.71 30.6905 146.271 29.2727 152.894 29.2727V26.2727V23.2727C145.396 23.2727 138.745 24.8853 133.055 28.2324L134.576 30.8182ZM152.894 26.2727V29.2727C159.518 29.2727 165.06 30.6907 169.639 33.4L171.167 30.8182L172.694 28.2363C167.031 24.8851 160.391 23.2727 152.894 23.2727V26.2727ZM171.167 30.8182L169.657 33.4106C174.302 36.1155 177.875 39.8985 180.408 44.8259L183.076 43.4545L185.744 42.0832C182.701 36.1621 178.335 31.5208 172.676 28.2257L171.167 30.8182ZM183.076 43.4545L180.411 44.832C182.941 49.7271 184.258 55.5412 184.258 62.3636H187.258H190.258C190.258 54.7618 188.787 47.9699 185.741 42.0771L183.076 43.4545ZM187.258 62.3636H184.258C184.258 69.1204 182.943 74.9235 180.408 79.8559L183.076 81.2273L185.744 82.5986C188.785 76.6826 190.258 69.9099 190.258 62.3636H187.258ZM183.076 81.2273L180.411 79.8498C177.878 84.7496 174.301 88.5392 169.646 91.2778L171.167 93.8636L172.688 96.4494C178.335 93.1275 182.698 88.4928 185.741 82.6047L183.076 81.2273ZM171.167 93.8636L169.65 91.2751C165.069 93.9586 159.523 95.3636 152.894 95.3636V98.3636V101.364C160.386 101.364 167.022 99.7687 172.683 96.4522L171.167 93.8636ZM152.985 83.3636V86.3636C156.8 86.3636 160.198 85.2673 162.967 82.9277L161.03 80.6364L159.094 78.345C157.559 79.6418 155.594 80.3636 152.985 80.3636V83.3636ZM161.03 80.6364L162.985 82.9119C165.611 80.6557 167.5 77.6563 168.732 74.0639L165.894 73.0909L163.056 72.1179C162.106 74.8892 160.752 76.92 159.075 78.3609L161.03 80.6364ZM165.894 73.0909L168.723 74.088C169.978 70.5281 170.576 66.5604 170.576 62.2273H167.576H164.576C164.576 66.0154 164.053 69.29 163.065 72.0939L165.894 73.0909ZM167.576 62.2273H170.576C170.576 57.8942 169.978 53.9264 168.723 50.3666L165.894 51.3636L163.065 52.3607C164.053 55.1645 164.576 58.4392 164.576 62.2273H167.576ZM165.894 51.3636L168.732 50.3907C167.5 46.7983 165.611 43.7988 162.985 41.5427L161.03 43.8182L159.075 46.0937C160.752 47.5345 162.106 49.5654 163.056 52.3366L165.894 51.3636ZM161.03 43.8182L162.985 41.5427C160.218 39.1648 156.813 38.0455 152.985 38.0455V41.0455V44.0455C155.581 44.0455 157.54 44.7746 159.075 46.0937L161.03 43.8182ZM152.985 41.0455V38.0455C149.133 38.0455 145.699 39.1603 142.879 41.5161L144.803 43.8182L146.727 46.1203C148.332 44.7791 150.352 44.0455 152.985 44.0455V41.0455ZM144.803 43.8182L142.864 41.5292C140.208 43.7791 138.285 46.7737 137.019 50.3666L139.849 51.3636L142.678 52.3607C143.654 49.5899 145.034 47.5542 146.742 46.1071L144.803 43.8182ZM139.849 51.3636L137.011 50.3907C135.793 53.9428 135.212 57.902 135.212 62.2273H138.212H141.212C141.212 58.4313 141.722 55.1481 142.686 52.3366L139.849 51.3636ZM138.212 62.2273H135.212C135.212 66.5525 135.793 70.5117 137.011 74.0639L139.849 73.0909L142.686 72.1179C141.722 69.3065 141.212 66.0232 141.212 62.2273H138.212ZM139.849 73.0909L137.019 74.088C138.285 77.6809 140.208 80.6754 142.864 82.9253L144.803 80.6364L146.742 78.3474C145.034 76.9003 143.654 74.8646 142.678 72.0939L139.849 73.0909ZM144.803 80.6364L142.898 82.954C145.718 85.2715 149.145 86.3636 152.985 86.3636V83.3636V80.3636C150.34 80.3636 148.313 79.6376 146.708 78.3187L144.803 80.6364ZM216.652 56.6364L213.652 56.6061L213.652 56.6212V56.6364H216.652ZM216.652 97V100H219.652V97H216.652ZM197.289 97H194.289V100H197.289V97ZM197.289 27.1818V24.1818H194.289V27.1818H197.289ZM215.743 27.1818H218.743V24.1818H215.743V27.1818ZM215.743 39.5H212.743V42.5H215.743V39.5ZM216.561 39.5V42.5H218.629L219.365 40.5671L216.561 39.5ZM224.334 29.8636L225.969 32.379L225.976 32.3742L225.984 32.3694L224.334 29.8636ZM250.243 29.4545L251.764 26.8687L250.243 29.4545ZM258.652 38.5455L255.977 39.9035L255.981 39.9119L258.652 38.5455ZM261.652 97V100H264.652V97H261.652ZM242.289 97H239.289V100H242.289V97ZM242.289 56L239.289 55.9787L239.289 55.9894V56H242.289ZM239.016 46L236.8 48.0222L236.806 48.0291L236.813 48.036L239.016 46ZM222.97 44.0455L221.503 41.4286L221.495 41.4334L221.486 41.4383L222.97 44.0455ZM218.334 48.9545L215.674 47.5681L215.67 47.5753L215.666 47.5825L218.334 48.9545ZM216.652 56.6364H213.652V97H216.652H219.652V56.6364H216.652ZM216.652 97V94H197.289V97V100H216.652V97ZM197.289 97H200.289V27.1818H197.289H194.289V97H197.289ZM197.289 27.1818V30.1818H215.743V27.1818V24.1818H197.289V27.1818ZM215.743 27.1818H212.743V39.5H215.743H218.743V27.1818H215.743ZM215.743 39.5V42.5H216.561V39.5V36.5H215.743V39.5ZM216.561 39.5L219.365 40.5671C220.685 37.0998 222.867 34.3953 225.969 32.379L224.334 29.8636L222.699 27.3483C218.528 30.0592 215.529 33.779 213.758 38.4329L216.561 39.5ZM224.334 29.8636L225.984 32.3694C229.043 30.355 232.853 29.2727 237.561 29.2727V26.2727V23.2727C231.906 23.2727 226.897 24.5844 222.684 27.3579L224.334 29.8636ZM237.561 26.2727V29.2727C241.961 29.2727 245.646 30.2309 248.722 32.0403L250.243 29.4545L251.764 26.8687C247.628 24.4358 242.859 23.2727 237.561 23.2727V26.2727ZM250.243 29.4545L248.722 32.0403C251.806 33.8543 254.221 36.4452 255.977 39.9035L258.652 38.5455L261.327 37.1874C259.083 32.7669 255.893 29.2972 251.764 26.8687L250.243 29.4545ZM258.652 38.5455L255.981 39.9119C257.72 43.31 258.652 47.4865 258.652 52.5455H261.652H264.652C264.652 46.7559 263.584 41.5991 261.323 37.179L258.652 38.5455ZM261.652 52.5455H258.652V97H261.652H264.652V52.5455H261.652ZM261.652 97V94H242.289V97V100H261.652V97ZM242.289 97H245.289V56H242.289H239.289V97H242.289ZM242.289 56L245.289 56.0213C245.322 51.2303 244.093 47.0742 241.219 43.964L239.016 46L236.813 48.036C238.363 49.7137 239.315 52.2242 239.289 55.9787L242.289 56ZM239.016 46L241.232 43.9778C238.348 40.8169 234.434 39.3636 229.879 39.3636V42.3636V45.3636C233.082 45.3636 235.26 46.3346 236.8 48.0222L239.016 46ZM229.879 42.3636V39.3636C226.831 39.3636 224.01 40.0235 221.503 41.4286L222.97 44.0455L224.437 46.6623C225.931 45.825 227.716 45.3636 229.879 45.3636V42.3636ZM222.97 44.0455L221.486 41.4383C218.98 42.8652 217.042 44.9427 215.674 47.5681L218.334 48.9545L220.994 50.341C221.869 48.6633 223.022 47.4682 224.454 46.6526L222.97 44.0455ZM218.334 48.9545L215.666 47.5825C214.314 50.2122 213.686 53.2565 213.652 56.6061L216.652 56.6364L219.652 56.6667C219.679 54.0163 220.172 51.9394 221.002 50.3266L218.334 48.9545ZM311.49 27.1818H314.49V24.1818H311.49V27.1818ZM311.49 41.7273V44.7273H314.49V41.7273H311.49ZM269.444 41.7273H266.444V44.7273H269.444V41.7273ZM269.444 27.1818V24.1818H266.444V27.1818H269.444ZM278.99 10.4545V7.45454H275.99V10.4545H278.99ZM298.354 10.4545H301.354V7.45454H298.354V10.4545ZM299.172 79.7273L296.538 81.1638L296.547 81.181L296.557 81.1981L299.172 79.7273ZM301.444 81.7727L300.315 84.5521L300.33 84.5581L300.345 84.564L301.444 81.7727ZM307.626 82.1364L308.12 85.0955L308.167 85.0876L308.215 85.0781L307.626 82.1364ZM309.717 81.7273L312.652 81.1069L312.046 78.2383L309.164 78.7787L309.717 81.7273ZM312.763 96.1364L313.658 98.9998L316.262 98.1859L315.698 95.516L312.763 96.1364ZM308.672 97.1818L308.016 94.2544L307.992 94.2598L307.968 94.2656L308.672 97.1818ZM302.263 97.9545L302.154 94.9565L302.146 94.9568L302.263 97.9545ZM289.99 96.0909L288.855 98.8679L288.863 98.8714L289.99 96.0909ZM281.854 89.4545L284.373 87.8258L284.373 87.8258L281.854 89.4545ZM278.99 78.0909L281.99 78.1108L281.99 78.1008V78.0909H278.99ZM311.49 27.1818H308.49V41.7273H311.49H314.49V27.1818H311.49ZM311.49 41.7273V38.7273H269.444V41.7273V44.7273H311.49V41.7273ZM269.444 41.7273H272.444V27.1818H269.444H266.444V41.7273H269.444ZM269.444 27.1818V30.1818H311.49V27.1818V24.1818H269.444V27.1818ZM278.99 10.4545V13.4545H298.354V10.4545V7.45454H278.99V10.4545ZM298.354 10.4545H295.354V75.5455H298.354H301.354V10.4545H298.354ZM298.354 75.5455H295.354C295.354 77.5765 295.653 79.5413 296.538 81.1638L299.172 79.7273L301.805 78.2907C301.6 77.9132 301.354 77.0901 301.354 75.5455H298.354ZM299.172 79.7273L296.557 81.1981C297.413 82.7195 298.675 83.8859 300.315 84.5521L301.444 81.7727L302.574 78.9933C302.274 78.8717 302.022 78.6745 301.786 78.2565L299.172 79.7273ZM301.444 81.7727L300.345 84.564C301.761 85.1217 303.297 85.3636 304.899 85.3636V82.3636V79.3636C303.895 79.3636 303.128 79.2116 302.544 78.9815L301.444 81.7727ZM304.899 82.3636V85.3636C305.976 85.3636 307.05 85.2739 308.12 85.0955L307.626 82.1364L307.133 79.1772C306.385 79.3019 305.641 79.3636 304.899 79.3636V82.3636ZM307.626 82.1364L308.215 85.0781C309.12 84.897 309.803 84.7634 310.27 84.6759L309.717 81.7273L309.164 78.7787C308.662 78.8729 307.951 79.0121 307.038 79.1946L307.626 82.1364ZM309.717 81.7273L306.782 82.3476L309.828 96.7567L312.763 96.1364L315.698 95.516L312.652 81.1069L309.717 81.7273ZM312.763 96.1364L311.868 93.2729C311.015 93.5396 309.744 93.8671 308.016 94.2544L308.672 97.1818L309.328 100.109C311.115 99.7087 312.571 99.3392 313.658 98.9998L312.763 96.1364ZM308.672 97.1818L307.968 94.2656C306.465 94.6284 304.54 94.8703 302.154 94.9565L302.263 97.9545L302.371 100.953C305.015 100.857 307.364 100.584 309.376 100.098L308.672 97.1818ZM302.263 97.9545L302.146 94.9568C297.808 95.1258 294.157 94.5424 291.117 93.3105L289.99 96.0909L288.863 98.8714C292.853 100.488 297.384 101.147 302.379 100.952L302.263 97.9545ZM289.99 96.0909L291.125 93.3139C288.176 92.1086 285.961 90.2819 284.373 87.8258L281.854 89.4545L279.334 91.0832C281.625 94.6272 284.834 97.2248 288.855 98.8679L289.99 96.0909ZM281.854 89.4545L284.373 87.8258C282.829 85.4378 281.962 82.2648 281.99 78.1108L278.99 78.0909L275.99 78.071C275.957 83.0685 276.999 87.4713 279.334 91.0832L281.854 89.4545ZM278.99 78.0909H281.99V10.4545H278.99H275.99V78.0909H278.99ZM323.407 97H320.407V100H323.407V97ZM323.407 3.90909V0.909088H320.407V3.90909H323.407ZM386.134 3.90909H389.134V0.909088H386.134V3.90909ZM386.134 20.1364V23.1364H389.134V20.1364H386.134ZM343.089 20.1364V17.1364H340.089V20.1364H343.089ZM343.089 42.3182H340.089V45.3182H343.089V42.3182ZM382.907 42.3182H385.907V39.3182H382.907V42.3182ZM382.907 58.5455V61.5455H385.907V58.5455H382.907ZM343.089 58.5455V55.5455H340.089V58.5455H343.089ZM343.089 80.7727H340.089V83.7727H343.089V80.7727ZM386.316 80.7727H389.316V77.7727H386.316V80.7727ZM386.316 97V100H389.316V97H386.316ZM323.407 97H326.407V3.90909H323.407H320.407V97H323.407ZM323.407 3.90909V6.90909H386.134V3.90909V0.909088H323.407V3.90909ZM386.134 3.90909H383.134V20.1364H386.134H389.134V3.90909H386.134ZM386.134 20.1364V17.1364H343.089V20.1364V23.1364H386.134V20.1364ZM343.089 20.1364H340.089V42.3182H343.089H346.089V20.1364H343.089ZM343.089 42.3182V45.3182H382.907V42.3182V39.3182H343.089V42.3182ZM382.907 42.3182H379.907V58.5455H382.907H385.907V42.3182H382.907ZM382.907 58.5455V55.5455H343.089V58.5455V61.5455H382.907V58.5455ZM343.089 58.5455H340.089V80.7727H343.089H346.089V58.5455H343.089ZM343.089 80.7727V83.7727H386.316V80.7727V77.7727H343.089V80.7727ZM386.316 80.7727H383.316V97H386.316H389.316V80.7727H386.316ZM386.316 97V94H323.407V97V100H386.316V97ZM418.222 56.6364L415.222 56.6061L415.222 56.6212V56.6364H418.222ZM418.222 97V100H421.222V97H418.222ZM398.859 97H395.859V100H398.859V97ZM398.859 27.1818V24.1818H395.859V27.1818H398.859ZM417.313 27.1818H420.313V24.1818H417.313V27.1818ZM417.313 39.5H414.313V42.5H417.313V39.5ZM418.131 39.5V42.5H420.199L420.935 40.5671L418.131 39.5ZM425.904 29.8636L427.539 32.379L427.546 32.3742L427.554 32.3694L425.904 29.8636ZM451.813 29.4545L453.334 26.8687L451.813 29.4545ZM460.222 38.5455L457.547 39.9035L457.551 39.9119L460.222 38.5455ZM463.222 97V100H466.222V97H463.222ZM443.859 97H440.859V100H443.859V97ZM443.859 56L440.859 55.9787L440.859 55.9894V56H443.859ZM440.586 46L438.37 48.0222L438.376 48.0291L438.383 48.036L440.586 46ZM424.54 44.0455L423.073 41.4286L423.065 41.4334L423.056 41.4383L424.54 44.0455ZM419.904 48.9545L417.244 47.5681L417.24 47.5753L417.236 47.5825L419.904 48.9545ZM418.222 56.6364H415.222V97H418.222H421.222V56.6364H418.222ZM418.222 97V94H398.859V97V100H418.222V97ZM398.859 97H401.859V27.1818H398.859H395.859V97H398.859ZM398.859 27.1818V30.1818H417.313V27.1818V24.1818H398.859V27.1818ZM417.313 27.1818H414.313V39.5H417.313H420.313V27.1818H417.313ZM417.313 39.5V42.5H418.131V39.5V36.5H417.313V39.5ZM418.131 39.5L420.935 40.5671C422.255 37.0998 424.437 34.3953 427.539 32.379L425.904 29.8636L424.269 27.3483C420.098 30.0592 417.099 33.779 415.328 38.4329L418.131 39.5ZM425.904 29.8636L427.554 32.3694C430.613 30.355 434.423 29.2727 439.131 29.2727V26.2727V23.2727C433.476 23.2727 428.467 24.5844 424.254 27.3579L425.904 29.8636ZM439.131 26.2727V29.2727C443.531 29.2727 447.216 30.2309 450.292 32.0403L451.813 29.4545L453.334 26.8687C449.198 24.4358 444.429 23.2727 439.131 23.2727V26.2727ZM451.813 29.4545L450.292 32.0403C453.376 33.8543 455.791 36.4452 457.547 39.9035L460.222 38.5455L462.897 37.1874C460.653 32.7669 457.463 29.2972 453.334 26.8687L451.813 29.4545ZM460.222 38.5455L457.551 39.9119C459.29 43.31 460.222 47.4865 460.222 52.5455H463.222H466.222C466.222 46.7559 465.154 41.5991 462.893 37.179L460.222 38.5455ZM463.222 52.5455H460.222V97H463.222H466.222V52.5455H463.222ZM463.222 97V94H443.859V97V100H463.222V97ZM443.859 97H446.859V56H443.859H440.859V97H443.859ZM443.859 56L446.859 56.0213C446.892 51.2303 445.663 47.0742 442.789 43.964L440.586 46L438.383 48.036C439.933 49.7137 440.885 52.2242 440.859 55.9787L443.859 56ZM440.586 46L442.802 43.9778C439.918 40.8169 436.004 39.3636 431.45 39.3636V42.3636V45.3636C434.652 45.3636 436.83 46.3346 438.37 48.0222L440.586 46ZM431.45 42.3636V39.3636C428.401 39.3636 425.58 40.0235 423.073 41.4286L424.54 44.0455L426.007 46.6623C427.501 45.825 429.286 45.3636 431.45 45.3636V42.3636ZM424.54 44.0455L423.056 41.4383C420.55 42.8652 418.612 44.9427 417.244 47.5681L419.904 48.9545L422.564 50.341C423.439 48.6633 424.592 47.4682 426.025 46.6526L424.54 44.0455ZM419.904 48.9545L417.236 47.5825C415.884 50.2122 415.256 53.2565 415.222 56.6061L418.222 56.6364L421.222 56.6667C421.249 54.0163 421.742 51.9394 422.572 50.3266L419.904 48.9545ZM487.242 94.0455L485.615 96.5661L485.625 96.5728L485.636 96.5794L487.242 94.0455ZM477.06 81.9091L474.338 83.1702L474.342 83.1795L474.347 83.1887L477.06 81.9091ZM477.196 42.2273L479.895 43.538L479.898 43.5319L477.196 42.2273ZM487.469 30.2727L489.044 32.8258L489.049 32.8228L487.469 30.2727ZM511.378 28.2727L510.012 30.9435L510.03 30.9529L510.049 30.9622L511.378 28.2727ZM517.742 33.1818L515.417 35.0776L515.433 35.0972L515.449 35.1164L517.742 33.1818ZM521.469 38.9091L518.735 40.1438L519.532 41.9091H521.469V38.9091ZM522.06 38.9091V41.9091H525.06V38.9091H522.06ZM522.06 3.90909V0.909088H519.06V3.90909H522.06ZM541.378 3.90909H544.378V0.909088H541.378V3.90909ZM541.378 97V100H544.378V97H541.378ZM522.287 97H519.287V100H522.287V97ZM522.287 85.8182H525.287V82.8182H522.287V85.8182ZM521.469 85.8182V82.8182H519.562L518.753 84.5449L521.469 85.8182ZM517.605 91.5909L515.345 89.6179L515.343 89.6206L517.605 91.5909ZM511.196 96.2727L509.917 93.559L509.905 93.5647L511.196 96.2727ZM515.696 80.1818L517.554 82.5373L517.558 82.534L515.696 80.1818ZM520.696 72.9545L517.894 71.8831L517.89 71.8952L517.885 71.9072L520.696 72.9545ZM520.742 51.2727L523.55 50.2163L523.55 50.2163L520.742 51.2727ZM499.742 44.2727L497.88 41.9206L497.88 41.9206L499.742 44.2727ZM494.787 72.8636L491.964 73.8779L491.97 73.8944L491.976 73.911L494.787 72.8636ZM499.742 80.1364L497.844 82.4597L497.862 82.4742L497.88 82.4885L499.742 80.1364ZM501.651 98.1364V95.1364C496.892 95.1364 492.65 93.9215 488.848 91.5115L487.242 94.0455L485.636 96.5794C490.439 99.6239 495.804 101.136 501.651 101.136V98.1364ZM487.242 94.0455L488.869 91.5248C485.138 89.1171 482.088 85.5381 479.773 80.6295L477.06 81.9091L474.347 83.1887C477.062 88.9467 480.8 93.4586 485.615 96.5661L487.242 94.0455ZM477.06 81.9091L479.782 80.648C477.529 75.7841 476.333 69.6662 476.333 62.1818H473.333H470.333C470.333 70.2732 471.622 77.3069 474.338 83.1702L477.06 81.9091ZM473.333 62.1818H476.333C476.333 54.4822 477.575 48.3138 479.895 43.538L477.196 42.2273L474.498 40.9166C471.666 46.7469 470.333 53.8814 470.333 62.1818H473.333ZM477.196 42.2273L479.898 43.5319C482.27 38.6196 485.34 35.1114 489.044 32.8258L487.469 30.2727L485.894 27.7196C481.052 30.7068 477.274 35.1683 474.495 40.9226L477.196 42.2273ZM487.469 30.2727L489.049 32.8228C492.872 30.4538 497.036 29.2727 501.605 29.2727V26.2727V23.2727C495.933 23.2727 490.672 24.7583 485.889 27.7227L487.469 30.2727ZM501.605 26.2727V29.2727C505.192 29.2727 507.946 29.8867 510.012 30.9435L511.378 28.2727L512.745 25.602C509.598 23.9921 505.837 23.2727 501.605 23.2727V26.2727ZM511.378 28.2727L510.049 30.9622C512.36 32.1047 514.121 33.489 515.417 35.0776L517.742 33.1818L520.067 31.286C518.15 28.9352 515.668 27.0468 512.707 25.5833L511.378 28.2727ZM517.742 33.1818L515.449 35.1164C516.946 36.8908 518.023 38.5679 518.735 40.1438L521.469 38.9091L524.203 37.6743C523.218 35.4927 521.81 33.3516 520.035 31.2472L517.742 33.1818ZM521.469 38.9091V41.9091H522.06V38.9091V35.9091H521.469V38.9091ZM522.06 38.9091H525.06V3.90909H522.06H519.06V38.9091H522.06ZM522.06 3.90909V6.90909H541.378V3.90909V0.909088H522.06V3.90909ZM541.378 3.90909H538.378V97H541.378H544.378V3.90909H541.378ZM541.378 97V94H522.287V97V100H541.378V97ZM522.287 97H525.287V85.8182H522.287H519.287V97H522.287ZM522.287 85.8182V82.8182H521.469V85.8182V88.8182H522.287V85.8182ZM521.469 85.8182L518.753 84.5449C517.982 86.1896 516.861 87.8822 515.345 89.6179L517.605 91.5909L519.865 93.5639C521.683 91.4814 523.138 89.3256 524.185 87.0915L521.469 85.8182ZM517.605 91.5909L515.343 89.6206C514.022 91.1375 512.241 92.4639 509.917 93.559L511.196 96.2727L512.475 98.9865C515.424 97.5967 517.916 95.8019 519.868 93.5613L517.605 91.5909ZM511.196 96.2727L509.905 93.5647C507.805 94.5661 505.091 95.1364 501.651 95.1364V98.1364V101.136C505.726 101.136 509.376 100.464 512.487 98.9807L511.196 96.2727ZM507.787 82.7273V85.7273C511.484 85.7273 514.801 84.7089 517.554 82.5373L515.696 80.1818L513.838 77.8263C512.289 79.0486 510.333 79.7273 507.787 79.7273V82.7273ZM515.696 80.1818L517.558 82.534C520.244 80.4082 522.201 77.5102 523.508 74.0019L520.696 72.9545L517.885 71.9072C516.889 74.5807 515.513 76.5009 513.834 77.8297L515.696 80.1818ZM520.696 72.9545L523.498 74.026C524.84 70.5183 525.469 66.5191 525.469 62.0909H522.469H519.469C519.469 65.9658 518.917 69.209 517.894 71.8831L520.696 72.9545ZM522.469 62.0909H525.469C525.469 57.6716 524.857 53.6919 523.55 50.2163L520.742 51.2727L517.934 52.3291C518.929 54.9747 519.469 58.2072 519.469 62.0909H522.469ZM520.742 51.2727L523.55 50.2163C522.238 46.7311 520.271 43.8662 517.563 41.7978L515.742 44.1818L513.921 46.5658C515.577 47.8308 516.942 49.6932 517.934 52.3291L520.742 51.2727ZM515.742 44.1818L517.563 41.7978C514.788 39.6779 511.472 38.6818 507.787 38.6818V41.6818V44.6818C510.345 44.6818 512.332 45.3524 513.921 46.5658L515.742 44.1818ZM507.787 41.6818V38.6818C504.031 38.6818 500.666 39.7146 497.88 41.9206L499.742 44.2727L501.604 46.6249C503.181 45.3763 505.179 44.6818 507.787 44.6818V41.6818ZM499.742 44.2727L497.88 41.9206C495.194 44.0466 493.249 46.9326 491.97 50.4226L494.787 51.4545L497.604 52.4865C498.568 49.8553 499.926 47.9534 501.604 46.6249L499.742 44.2727ZM494.787 51.4545L491.97 50.4226C490.703 53.8815 490.105 57.7888 490.105 62.0909H493.105H496.105C496.105 58.3324 496.629 55.1488 497.604 52.4865L494.787 51.4545ZM493.105 62.0909H490.105C490.105 66.4223 490.703 70.3675 491.964 73.8779L494.787 72.8636L497.611 71.8494C496.629 69.1173 496.105 65.8807 496.105 62.0909H493.105ZM494.787 72.8636L491.976 73.911C493.278 77.4068 495.209 80.3071 497.844 82.4597L499.742 80.1364L501.64 77.813C499.972 76.4504 498.599 74.5023 497.598 71.8163L494.787 72.8636ZM499.742 80.1364L497.88 82.4885C500.666 84.6945 504.031 85.7273 507.787 85.7273V82.7273V79.7273C505.179 79.7273 503.181 79.0328 501.604 77.7842L499.742 80.1364Z" fill="#8B5CF6" mask="url(#path-1-outside-1_17_5)"/>
<defs>
<linearGradient id="paint0_linear_17_5" x1="101.972" y1="219.07" x2="440.096" y2="-122.407" gradientUnits="userSpaceOnUse">
<stop stop-color="white"/>
<stop offset="0.2" stop-color="#E879F9"/>
<stop offset="0.4" stop-color="#C084FC"/>
<stop offset="0.6" stop-color="#8B5CF6"/>
<stop offset="0.8" stop-color="#7C3AED"/>
<stop offset="1" stop-color="white"/>
</linearGradient>
</defs>
</svg>
