<svg width="141" height="23" viewBox="0 0 141 23" fill="none" xmlns="http://www.w3.org/2000/svg">
<path d="M10.6 22.98C8.54 22.98 6.78 22.51 5.32 21.57C3.86 20.63 2.73 19.33 1.93 17.67C1.15 15.99 0.76 14.06 0.76 11.88C0.76 9.74 1.16 7.83 1.96 6.15C2.76 4.47 3.91 3.15 5.41 2.19C6.93 1.21 8.75 0.72 10.87 0.72C12.71 0.72 14.26 1.03 15.52 1.65C16.8 2.25 17.82 3.11 18.58 4.23C19.34 5.35 19.87 6.67 20.17 8.19L15.46 8.4C15.24 7.22 14.77 6.29 14.05 5.61C13.35 4.91 12.3 4.56 10.9 4.56C9.68 4.56 8.66 4.88 7.84 5.52C7.04 6.16 6.44 7.03 6.04 8.13C5.66 9.23 5.47 10.48 5.47 11.88C5.47 13.3 5.66 14.56 6.04 15.66C6.44 16.74 7.04 17.59 7.84 18.21C8.66 18.83 9.71 19.14 10.99 19.14C11.93 19.14 12.74 18.95 13.42 18.57C14.12 18.19 14.66 17.67 15.04 17.01C15.44 16.35 15.68 15.6 15.76 14.76H10.9V11.43H20.23V22.5H17.41L17.17 17.94L17.71 18.18C17.51 19.12 17.07 19.95 16.39 20.67C15.71 21.39 14.87 21.96 13.87 22.38C12.89 22.78 11.8 22.98 10.6 22.98ZM28.3105 22.86C26.6505 22.86 25.2905 22.48 24.2305 21.72C23.1905 20.94 22.6705 19.86 22.6705 18.48C22.6705 17.06 23.1105 15.97 23.9905 15.21C24.8905 14.43 26.2105 13.86 27.9505 13.5L33.1405 12.48C33.1405 11.44 32.9005 10.66 32.4205 10.14C31.9605 9.6 31.2905 9.33 30.4105 9.33C29.5505 9.33 28.8805 9.53 28.4005 9.93C27.9205 10.31 27.6105 10.88 27.4705 11.64L22.9405 11.43C23.2405 9.67 24.0305 8.34 25.3105 7.44C26.6105 6.52 28.3105 6.06 30.4105 6.06C32.8105 6.06 34.6105 6.63 35.8105 7.77C37.0305 8.91 37.6405 10.58 37.6405 12.78V18.27C37.6405 18.73 37.7105 19.04 37.8505 19.2C38.0105 19.34 38.2405 19.41 38.5405 19.41H38.9905V22.5C38.8505 22.54 38.6205 22.58 38.3005 22.62C38.0005 22.66 37.7005 22.68 37.4005 22.68C36.7605 22.68 36.1605 22.57 35.6005 22.35C35.0605 22.13 34.6205 21.76 34.2805 21.24C33.9405 20.7 33.7705 19.94 33.7705 18.96L34.1605 19.26C33.9605 19.98 33.6005 20.61 33.0805 21.15C32.5805 21.69 31.9205 22.11 31.1005 22.41C30.3005 22.71 29.3705 22.86 28.3105 22.86ZM29.3905 19.77C30.1305 19.77 30.7805 19.63 31.3405 19.35C31.9005 19.05 32.3405 18.62 32.6605 18.06C32.9805 17.5 33.1405 16.84 33.1405 16.08V15.3L29.4805 16.08C28.7605 16.22 28.2105 16.46 27.8305 16.8C27.4705 17.12 27.2905 17.54 27.2905 18.06C27.2905 18.6 27.4705 19.02 27.8305 19.32C28.1905 19.62 28.7105 19.77 29.3905 19.77ZM41.353 22.5V6.42H45.403L45.553 10.29L45.133 10.11C45.353 9.25 45.683 8.52 46.123 7.92C46.583 7.32 47.133 6.86 47.773 6.54C48.413 6.22 49.113 6.06 49.873 6.06C51.213 6.06 52.293 6.45 53.113 7.23C53.953 8.01 54.493 9.06 54.733 10.38L54.163 10.41C54.343 9.47 54.653 8.68 55.093 8.04C55.553 7.38 56.113 6.89 56.773 6.57C57.433 6.23 58.173 6.06 58.993 6.06C60.113 6.06 61.073 6.29 61.873 6.75C62.673 7.21 63.293 7.9 63.733 8.82C64.173 9.72 64.393 10.83 64.393 12.15V22.5H59.893V13.41C59.893 12.15 59.703 11.21 59.323 10.59C58.943 9.95 58.323 9.63 57.463 9.63C56.923 9.63 56.463 9.78 56.083 10.08C55.703 10.38 55.403 10.82 55.183 11.4C54.983 11.96 54.883 12.65 54.883 13.47V22.5H50.833V13.47C50.833 12.23 50.653 11.28 50.293 10.62C49.933 9.96 49.313 9.63 48.433 9.63C47.893 9.63 47.423 9.78 47.023 10.08C46.643 10.38 46.353 10.82 46.153 11.4C45.953 11.98 45.853 12.67 45.853 13.47V22.5H41.353ZM75.2139 22.86C73.5739 22.86 72.1439 22.52 70.9239 21.84C69.7239 21.14 68.7839 20.16 68.1039 18.9C67.4439 17.64 67.1139 16.16 67.1139 14.46C67.1139 12.76 67.4439 11.29 68.1039 10.05C68.7839 8.79 69.7239 7.81 70.9239 7.11C72.1239 6.41 73.5439 6.06 75.1839 6.06C76.7839 6.06 78.1739 6.41 79.3539 7.11C80.5339 7.81 81.4439 8.81 82.0839 10.11C82.7439 11.41 83.0739 12.96 83.0739 14.76V15.66H71.7639C71.8239 16.94 72.1639 17.89 72.7839 18.51C73.4239 19.13 74.2639 19.44 75.3039 19.44C76.0639 19.44 76.6939 19.28 77.1939 18.96C77.7139 18.64 78.0839 18.15 78.3039 17.49L82.8339 17.76C82.4139 19.36 81.5239 20.61 80.1639 21.51C78.8039 22.41 77.1539 22.86 75.2139 22.86ZM71.7639 12.9H78.4539C78.3939 11.72 78.0639 10.84 77.4639 10.26C76.8839 9.68 76.1239 9.39 75.1839 9.39C74.2439 9.39 73.4639 9.7 72.8439 10.32C72.2439 10.92 71.8839 11.78 71.7639 12.9ZM95.418 22.98C93.478 22.98 91.748 22.54 90.228 21.66C88.728 20.78 87.548 19.51 86.688 17.85C85.848 16.19 85.428 14.2 85.428 11.88C85.428 9.62 85.838 7.66 86.658 6C87.478 4.32 88.648 3.02 90.168 2.1C91.688 1.18 93.468 0.72 95.508 0.72C98.288 0.72 100.448 1.41 101.988 2.79C103.548 4.15 104.548 6.1 104.988 8.64L100.248 8.82C100.008 7.48 99.488 6.44 98.688 5.7C97.888 4.94 96.828 4.56 95.508 4.56C94.368 4.56 93.398 4.86 92.598 5.46C91.798 6.06 91.188 6.91 90.768 8.01C90.348 9.11 90.138 10.4 90.138 11.88C90.138 13.38 90.348 14.68 90.768 15.78C91.208 16.86 91.828 17.69 92.628 18.27C93.428 18.85 94.378 19.14 95.478 19.14C96.918 19.14 98.028 18.74 98.808 17.94C99.608 17.12 100.108 15.99 100.308 14.55L105.078 14.73C104.798 16.47 104.248 17.95 103.428 19.17C102.608 20.39 101.528 21.33 100.188 21.99C98.868 22.65 97.278 22.98 95.418 22.98ZM107.828 22.5V1.2H112.328V10.17H111.728C111.888 9.23 112.198 8.46 112.658 7.86C113.138 7.26 113.728 6.81 114.428 6.51C115.148 6.21 115.928 6.06 116.768 6.06C117.968 6.06 118.968 6.32 119.768 6.84C120.568 7.36 121.168 8.08 121.568 9C121.988 9.92 122.198 10.97 122.198 12.15V22.5H117.698V13.23C117.698 12.03 117.508 11.13 117.128 10.53C116.768 9.93 116.148 9.63 115.268 9.63C114.348 9.63 113.628 9.94 113.108 10.56C112.588 11.18 112.328 12.11 112.328 13.35V22.5H107.828ZM131.067 22.86C129.407 22.86 128.107 22.33 127.167 21.27C126.247 20.19 125.787 18.69 125.787 16.77V6.42H130.287V15.72C130.287 16.96 130.477 17.87 130.857 18.45C131.237 19.01 131.837 19.29 132.657 19.29C133.577 19.29 134.287 18.98 134.787 18.36C135.307 17.72 135.567 16.77 135.567 15.51V6.42H140.067V22.5H135.957L135.837 17.88L136.407 18C136.167 19.6 135.597 20.81 134.697 21.63C133.797 22.45 132.587 22.86 131.067 22.86Z" fill="url(#paint0_linear_455_2010)"/>
<defs>
<linearGradient id="paint0_linear_455_2010" x1="-0.5" y1="11.5" x2="142.5" y2="11.5" gradientUnits="userSpaceOnUse">
<stop stop-color="#A855F7"/>
<stop offset="1" stop-color="#EC4899"/>
</linearGradient>
</defs>
</svg>
