<svg width="69" height="69" viewBox="0 0 69 69" fill="none" xmlns="http://www.w3.org/2000/svg">
<rect x="1.95367" y="1.4624" width="66" height="66" rx="7" stroke="#1F2937" stroke-width="2"/>
<path d="M45.6204 31.7958C45.6204 39.7958 34.9537 47.7958 34.9537 47.7958C34.9537 47.7958 24.287 39.7958 24.287 31.7958C24.287 28.9668 25.4108 26.2537 27.4112 24.2533C29.4116 22.253 32.1247 21.1292 34.9537 21.1292C37.7827 21.1292 40.4958 22.253 42.4962 24.2533C44.4965 26.2537 45.6204 28.9668 45.6204 31.7958Z" stroke="#1F2937" stroke-width="2.66667" stroke-linecap="round" stroke-linejoin="round"/>
<path d="M34.9537 35.7957C37.1628 35.7957 38.9537 34.0048 38.9537 31.7957C38.9537 29.5865 37.1628 27.7957 34.9537 27.7957C32.7445 27.7957 30.9537 29.5865 30.9537 31.7957C30.9537 34.0048 32.7445 35.7957 34.9537 35.7957Z" stroke="#1F2937" stroke-width="2.66667" stroke-linecap="round" stroke-linejoin="round"/>
</svg>
