<svg width="69" height="69" viewBox="0 0 69 69" fill="none" xmlns="http://www.w3.org/2000/svg">
<rect x="1.95367" y="1.4624" width="66" height="66" rx="7" stroke="#1F2937" stroke-width="2"/>
<path d="M48.287 41.0224V45.0224C48.2885 45.3937 48.2125 45.7613 48.0637 46.1015C47.9149 46.4417 47.6968 46.7472 47.4231 46.9982C47.1495 47.2492 46.8265 47.4403 46.4747 47.5593C46.1229 47.6783 45.7502 47.7225 45.3804 47.689C41.2775 47.2432 37.3364 45.8412 33.8737 43.5957C30.6521 41.5486 27.9208 38.8173 25.8737 35.5957C23.6203 32.1173 22.218 28.157 21.7804 24.0357C21.747 23.667 21.7909 23.2954 21.909 22.9445C22.0272 22.5937 22.2171 22.2713 22.4667 21.9979C22.7163 21.7244 23.0201 21.506 23.3587 21.3564C23.6974 21.2068 24.0635 21.1294 24.4337 21.129H28.4337C29.0808 21.1227 29.7081 21.3518 30.1987 21.7737C30.6893 22.1957 31.0098 22.7816 31.1004 23.4224C31.2692 24.7025 31.5823 25.9593 32.0337 27.169C32.2131 27.6463 32.2519 28.1649 32.1456 28.6635C32.0392 29.1622 31.7922 29.6199 31.4337 29.9824L29.7404 31.6757C31.6384 35.0138 34.4023 37.7776 37.7404 39.6757L39.4337 37.9824C39.7962 37.6239 40.2539 37.3768 40.7525 37.2705C41.2511 37.1642 41.7698 37.203 42.247 37.3824C43.4567 37.8338 44.7136 38.1469 45.9937 38.3157C46.6414 38.4071 47.2329 38.7333 47.6557 39.2324C48.0786 39.7314 48.3032 40.3685 48.287 41.0224Z" stroke="#1F2937" stroke-width="2.66667" stroke-linecap="round" stroke-linejoin="round"/>
</svg>
