<svg width="69" height="69" viewBox="0 0 69 69" fill="none" xmlns="http://www.w3.org/2000/svg">
<rect x="1.22366" y="1.4624" width="66" height="66" rx="7" stroke="#1F2937" stroke-width="2"/>
<path d="M46.7837 33.0249C47.0224 32.9196 47.2249 32.7466 47.3662 32.5273C47.5076 32.308 47.5815 32.0521 47.5788 31.7912C47.5761 31.5303 47.4969 31.276 47.3511 31.0597C47.2052 30.8434 46.9992 30.6746 46.7583 30.5742L35.3303 25.3689C34.9829 25.2104 34.6055 25.1284 34.2237 25.1284C33.8418 25.1284 33.4644 25.2104 33.117 25.3689L21.6903 30.5689C21.453 30.6729 21.251 30.8437 21.1092 31.0606C20.9674 31.2776 20.8919 31.5311 20.8919 31.7902C20.8919 32.0494 20.9674 32.3029 21.1092 32.5198C21.251 32.7367 21.453 32.9076 21.6903 33.0116L33.117 38.2222C33.4644 38.3807 33.8418 38.4627 34.2237 38.4627C34.6055 38.4627 34.9829 38.3807 35.3303 38.2222L46.7837 33.0249Z" stroke="#1F2937" stroke-width="2.66667" stroke-linecap="round" stroke-linejoin="round"/>
<path d="M47.557 31.7959V39.7959" stroke="#1F2937" stroke-width="2.66667" stroke-linecap="round" stroke-linejoin="round"/>
<path d="M26.2237 35.1289V39.7956C26.2237 40.8564 27.0665 41.8739 28.5668 42.624C30.0671 43.3741 32.1019 43.7956 34.2237 43.7956C36.3454 43.7956 38.3802 43.3741 39.8805 42.624C41.3808 41.8739 42.2237 40.8564 42.2237 39.7956V35.1289" stroke="#1F2937" stroke-width="2.66667" stroke-linecap="round" stroke-linejoin="round"/>
</svg>
