<svg width="69" height="69" viewBox="0 0 69 69" fill="none" xmlns="http://www.w3.org/2000/svg">
<rect x="1.95367" y="1.46228" width="66" height="66" rx="7" stroke="#1F2937" stroke-width="2"/>
<path d="M44.287 46.4623V43.7956C44.287 42.3811 43.7251 41.0246 42.7249 40.0244C41.7247 39.0242 40.3682 38.4623 38.9537 38.4623H30.9537C29.5392 38.4623 28.1826 39.0242 27.1824 40.0244C26.1822 41.0246 25.6203 42.3811 25.6203 43.7956V46.4623" stroke="#1F2937" stroke-width="2.66667" stroke-linecap="round" stroke-linejoin="round"/>
<path d="M34.9537 33.1289C37.8992 33.1289 40.287 30.7411 40.287 27.7956C40.287 24.8501 37.8992 22.4623 34.9537 22.4623C32.0081 22.4623 29.6203 24.8501 29.6203 27.7956C29.6203 30.7411 32.0081 33.1289 34.9537 33.1289Z" stroke="#1F2937" stroke-width="2.66667" stroke-linecap="round" stroke-linejoin="round"/>
</svg>
